<svg viewBox="862.5392 409.7961 444.9217 411.4078" width="5000" height="4623.373056427681" xmlns="http://www.w3.org/2000/svg" xmlns:xlink="http://www.w3.org/1999/xlink" preserveAspectRatio="none"><defs></defs><style>.aD6z1nYkhcolor {fill:#FF9900;fill-opacity:1;}.afaZmA-x-E0filter-floo {flood-color:#FF9900;flood-opacity:0.59;}.aIptOCySncolors-0 {fill:#F7F5A0;fill-opacity:1;}.aIptOCySncolors-1 {fill:#FF9900;fill-opacity:1;}.aljiB-RH9J0filter-floo {flood-color:#FF9900;flood-opacity:0.42;}.aSuyoL0zegqcolor {fill:#FF9900;fill-opacity:1;}.aSuyoL0zegqstrokeColor-str {stroke:#FFFFFF;stroke-opacity:1;}.azu4rhCN2h0filter-floo {flood-color:#F7F5A0;flood-opacity:0.56;}.icon3-str {stroke:#FFFFFF;stroke-opacity:1;}</style><defs>
      <filter
        x="862.5392"
        y="757.7959"
        width="351.341"
        height="63.408"
        id="faZmA-x-E"
        filterUnits="userSpaceOnUse"
        primitiveUnits="userSpaceOnUse"
        color-interpolation-filters="sRGB">
        <feMerge><feMergeNode in="SourceGraphic" /></feMerge>
      </filter>
      <filter
        x="1242.7096"
        y="757.7959"
        width="64.7513"
        height="63.1394"
        id="ljiB-RH9J"
        filterUnits="userSpaceOnUse"
        primitiveUnits="userSpaceOnUse"
        color-interpolation-filters="sRGB">
        <feMerge><feMergeNode in="SourceGraphic" /></feMerge>
      </filter>
      <filter
        x="922.6063"
        y="409.7961"
        width="335.1033"
        height="298.8425"
        id="zu4rhCN2h"
        filterUnits="userSpaceOnUse"
        primitiveUnits="userSpaceOnUse"
        color-interpolation-filters="sRGB">
        <feMerge><feMergeNode in="SourceGraphic" /></feMerge>
      </filter></defs><g filter="url(#faZmA-x-E)"><g opacity="1" transform="rotate(0 862.5392 757.7959)">
<svg width="351.341" height="63.408" x="862.5392" y="757.7959" version="1.1" preserveAspectRatio="none" viewBox="0 -28.32 156.92 28.32">
  <g transform="matrix(1 0 0 1 0 0)" class="aD6z1nYkhcolor"><path id="id-D6z1nYkh5" d="M21.56 0L20.16-4.28L10.72-4.28L9.32 0L0 0L10.36-28.32L20.60-28.32L30.92 0L21.56 0ZM12.88-10.96L18-10.96L15.44-18.84L12.88-10.96Z M64.16-28.32L73.72-28.32L67.24 0L56.20 0L52.92-16.08L49.64 0L38.60 0L32.12-28.32L41.68-28.32L44.24-10.48L48.08-28.32L57.76-28.32L61.60-10.48L64.16-28.32Z M96.48 0L95.08-4.28L85.64-4.28L84.24 0L74.92 0L85.28-28.32L95.52-28.32L105.84 0L96.48 0ZM87.80-10.96L92.92-10.96L90.36-18.84L87.80-10.96Z M135.64-28.32L125.16-14.56L135.64 0L124.96 0L116.72-12.28L116.72 0L107.84 0L107.84-28.32L116.72-28.32L116.72-16.36L125.04-28.32L135.64-28.32Z M156.92-21.28L146.92-21.28L146.92-17.76L155.72-17.76L155.72-11.08L146.92-11.08L146.92-7.08L156.92-7.08L156.92 0L138.04 0L138.04-28.32L156.92-28.32L156.92-21.28Z"/></g>
</svg>
</g></g><g opacity="1" transform="rotate(0 922.6063 409.7961)">
<svg width="335.1033" height="298.8425" x="922.6063" y="409.7961" version="1.1" preserveAspectRatio="none" viewBox="20.000316619873047 28.99983787536621 159.9996795654297 142.68617248535156">
  <g transform="matrix(1 0 0 1 0 0)" ><g><path d="M92.872 30.791c7.05-3.766 15.83-1.414 20.053 5.372l.263.439 64.506 111.707H76.693l13.704-23.837 46.035-.002-50.159-86.894.92-1.521a15.209 15.209 0 0 1 4.66-4.669l.571-.347.448-.248z" data-color="1" class="aIptOCySncolors-0"></path><path d="M86.282 84.177l13.776 23.834-22.955 39.809 100.32.001.882 1.614A15.233 15.233 0 0 1 180 156.42c0 8.253-6.562 14.974-14.754 15.23l-.484.008H35.78l50.502-87.481z" data-color="1" class="aIptOCySncolors-0"></path><path d="M86.528 37.111l50.504 87.483h-27.55L86.528 84.787l-50.16 86.899-1.84-.045a15.256 15.256 0 0 1-6.899-2.027c-7.147-4.127-9.691-13.164-5.831-20.389l.25-.449 64.48-111.665z" data-color="2" class="aIptOCySncolors-1"></path><path opacity=".5" d="M86.282 84.177l13.776 23.834-22.955 39.809 100.32.001.882 1.614A15.233 15.233 0 0 1 180 156.42c0 8.253-6.562 14.974-14.754 15.23l-.484.008H35.78l50.502-87.481z" data-color="2" class="aIptOCySncolors-1"></path></g></g>
</svg>
</g><g opacity="1" transform="rotate(0 1242.7096 757.7959)">
<svg width="64.7513" height="63.1394" x="1242.7096" y="757.7959" version="1.1" preserveAspectRatio="none" viewBox="1.04 -28.2 28.92 28.2">
  <g transform="matrix(1 0 0 1 0 0)" class="aSuyoL0zegqcolor"><path id="id-SuyoL0zegq2" d="M21.88 0L19.16-7.32L5.80-7.32L3.04 0L1.04 0L11.48-27.44L13.48-27.44L23.84 0L21.88 0ZM6.32-8.80L18.60-8.80L12.48-25.24L6.32-8.80Z M28.16-28.20L29.96-28.20L29.96 0L28.16 0L28.16-28.20Z"/></g>
</svg>
</g></svg>